{
	"nodes":[{
		"name":"1.step",
		"children":[1]
	},
	{
		"name":"MeshBody1 (2)",
		"mesh":0
	}],
	"asset":{
		"version":"2.0",
		"generator":"Created using the official Cinema 4D glTF Exporter 1.000x284978"
	},
	"bufferViews":[{
		"target":34963,
		"buffer":0,
		"byteOffset":0,
		"byteLength":5760
	},
	{
		"target":34962,
		"buffer":0,
		"byteOffset":5760,
		"byteLength":92096,
		"byteStride":32
	}],
	"scenes":[{
		"nodes":[0]
	}],
	"buffers":[{
		"uri":"data:application/octet-stream;base64,",
		"byteLength":97856
	}],
	"meshes":[{
		"name":"MeshBody1 (2)",
		"primitives":[{
			"attributes":{
				"POSITION":1,
				"NORMAL":2,
				"TEXCOORD_0":3
			},
			"indices":0,
			"material":0
		}]
	}],
	"accessors":[{
		"count":2880,
		"bufferView":0,
		"type":"SCALAR",
		"componentType":5123,
		"byteOffset":0,
		"min":[0],
		"max":[2877]
	},
	{
		"count":2878,
		"bufferView":1,
		"type":"VEC3",
		"componentType":5126,
		"byteOffset":0,
		"min":[-1.0,
		-7.26400089263916,
		-1.0],
		"max":[0.9980000257492065,
		-5.264000415802002,
		0.9980000257492065]
	},
	{
		"count":2878,
		"bufferView":1,
		"type":"VEC3",
		"componentType":5126,
		"byteOffset":12,
		"min":[-0.9916250705718994,
		-0.9916250705718994,
		-0.9957500696182251],
		"max":[0.9915313124656677,
		0.991312563419342,
		0.9957500696182251]
	},
	{
		"count":2878,
		"bufferView":1,
		"type":"VEC2",
		"componentType":5126,
		"byteOffset":24,
		"min":[-3.577497185210804e-14,
		-4.8175025980142647e-14],
		"max":[1.0,
		1.0]
	}],
	"materials":[{
		"pbrMetallicRoughness":{
			"baseColorFactor":[0.22040000000000005,
			0.58,
			0.47212000000000006,
			1.0],
			"metallicFactor":0.0,
			"roughnessFactor":0.5
		},
		"emissiveFactor":[0.0,
		0.0,
		0.0],
		"name":"Mat.1",
		"alphaMode":"OPAQUE",
		"doubleSided":false
	}]
}